<svg xmlns="http://www.w3.org/2000/svg" width="440" height="440">
    <g transform="scale(10)">
        <g>
            <g transform="scale(0.42)">
                <g>
                    <rect fill="transparent" transform="matrix(1 0 0 1 0 0)" x="0" y="11.215497016906738" width="67.25" height="24.384502410888672" stroke="none" vector-effect="non-scaling-stroke" />
                    <g transform="matrix(1 0 0 1 0 0)">
                        <defs>
                            <linearGradient x1="0" y1="0" x2="0" y2="1" id="gradient15" gradientTransform="rotate(-180 .5 .5)">
                                <stop offset="0" stop-color="#01A6DE" stop-opacity="1" />
                                <stop offset="1" stop-color="#01A6DE" stop-opacity="1" />
                            </linearGradient>
                        </defs>
                        <path fill="url(#gradient15)" d="M67.25 32.2Q54.15 15.5 40.7 12.1 29.9 9.35 19.35 15.15 11.8 19.3 5.15 27.35 1.85 31.4 0 34.55 1.7 31.8 4.7 28.35 10.75 21.45 17.5 18.1 26.95 13.35 36.55 16.3 48.55 20 60.05 35.6L67.25 32.2Z" />
                    </g>
                </g>
                <g>
                    <rect fill="transparent" transform="matrix(1 0 0 1 0 0)" x="63.150001525878906" y="36.599998474121094" width="11.25" height="9.800003051757812" stroke="none" vector-effect="non-scaling-stroke" />
                    <g transform="matrix(1 0 0 1 0 0)">
                        <defs>
                            <linearGradient x1="0" y1="0" x2="0" y2="1" id="gradient16" gradientTransform="rotate(-180 .5 .5)">
                                <stop offset="0" stop-color="#80C4E9" stop-opacity="1" />
                                <stop offset="1" stop-color="#80C4E9" stop-opacity="1" />
                            </linearGradient>
                        </defs>
                        <path fill="url(#gradient16)" d="M63.15 40.05Q65 42.85 67.15 46.4L74.4 42.35Q72.4 39.2 70.55 36.6L63.15 40.05Z" />
                    </g>
                </g>
                <g>
                    <rect fill="transparent" transform="matrix(1 0 0 1 0 0)" x="7.449999809265137" y="4.153096675872803" width="82.45000457763672" height="44.89690399169922" stroke="none" vector-effect="non-scaling-stroke" />
                    <g transform="matrix(1 0 0 1 0 0)">
                        <defs>
                            <linearGradient x1="0" y1="0" x2="0" y2="1" id="gradient17" gradientTransform="rotate(-180 .5 .5)">
                                <stop offset="0" stop-color="#005E91" stop-opacity="1" />
                                <stop offset="1" stop-color="#336699" stop-opacity="1" />
                            </linearGradient>
                        </defs>
                        <path fill="url(#gradient17)" d="M83.3 49.05L89.9 45.95Q74.5 19.05 58.1 9.4 45 1.7 31.85 5.3 22.45 7.9 14 15.9 9.8 19.9 7.45 23.35 9.65 20.4 13.65 17.05 21.65 10.4 30.4 8.7 42.6 6.3 54.6 14.1 69.55 23.8 83.3 49.05Z" />
                    </g>
                </g>
                <g>
                    <rect fill="transparent" transform="matrix(1 0 0 1 0 0)" x="85.8499984741211" y="50.70000076293945" width="10.099998474121094" height="10" stroke="none" vector-effect="non-scaling-stroke" />
                    <g transform="matrix(1 0 0 1 0 0)">
                        <defs>
                            <linearGradient x1="0" y1="0" x2="0" y2="1" id="gradient18" gradientTransform="rotate(-180 .5 .5)">
                                <stop offset="0" stop-color="#3a76b2" stop-opacity="1" />
                                <stop offset="1" stop-color="#3d6b99" stop-opacity="1" />
                            </linearGradient>
                        </defs>
                        <path fill="url(#gradient18)" d="M89.25 60.7L95.95 57.35Q94.45 54.2 92.5 50.7L85.85 53.8Q87.7 57.5 89.25 60.7Z" />
                    </g>
                </g>
                <g>
                    <rect fill="transparent" transform="matrix(1 0 0 1 0 0)" x="34.25" y="-5.960464477539063e-8" width="59.30000305175781" height="33.75" stroke="none" vector-effect="non-scaling-stroke" />
                    <g transform="matrix(1 0 0 1 0 0)">
                        <defs>
                            <linearGradient x1="0" y1="0" x2="0" y2="1" id="gradient19" gradientTransform="rotate(-180 .5 .5)">
                                <stop offset="0" stop-color="#D75610" stop-opacity="1" />
                                <stop offset="1" stop-color="#D75610" stop-opacity="1" />
                            </linearGradient>
                        </defs>
                        <path fill="url(#gradient19)" d="M88.2 33.75L93.55 31.25Q75.6 3.95 53.1 0.45 46.1-0.6 39.45 0.8 37.4 1.25 35.6 1.9L34.25 2.45 35.6 2.25Q37.35 2 39.3 1.95 45.7 1.75 52.25 3.65 73.25 9.65 88.2 33.75Z" />
                    </g>
                </g>
                <g>
                    <rect fill="transparent" transform="matrix(1 0 0 1 0 0)" x="90.94999694824219" y="35.849998474121094" width="9.050003051757812" height="8.700000762939453" stroke="none" vector-effect="non-scaling-stroke" />
                    <g transform="matrix(1 0 0 1 0 0)">
                        <defs>
                            <linearGradient x1="0" y1="0" x2="0" y2="1" id="gradient20" gradientTransform="rotate(-180 .5 .5)">
                                <stop offset="0" stop-color="#F9BC69" stop-opacity="1" />
                                <stop offset="1" stop-color="#F9BC69" stop-opacity="1" />
                            </linearGradient>
                        </defs>
                        <path fill="url(#gradient20)" d="M90.95 38.45Q92.7 41.6 94.1 44.55L100 42.1Q98.2 38.7 96.45 35.85L90.95 38.45Z" />
                    </g>
                </g>
            </g>
        </g>
        <g>
            <g transform="scale(0.8) translate(3 42)">
                <path fill="#336699" fill-opacity="1" d="M2.5,-2.611111111111109C2.5,-2.611111111111109,7.388888888888888,-2.611111111111109,7.388888888888888,-2.611111111111109C7.388888888888888,-2.611111111111109,7.388888888888888,6.1111111111111125,7.388888888888888,6.1111111111111125C7.388888888888888,6.7777777777777795,7.277777777777778,7.38888888888889,7.111111111111111,7.88888888888889C6.944444444444444,8.388888888888891,6.666666666666666,8.722222222222223,6.333333333333333,9.055555555555557C6,9.38888888888889,5.611111111111111,9.611111111111112,5.166666666666666,9.777777777777779C4.722222222222222,9.944444444444446,4.277777777777778,10.055555555555557,3.7777777777777777,10.055555555555557C2.611111111111111,10.055555555555557,1.611111111111111,9.611111111111112,0.9444444444444444,8.777777777777779C0.9444444444444444,8.777777777777779,1.8888888888888888,7.500000000000002,1.8888888888888888,7.500000000000002C1.9444444444444444,7.555555555555557,2,7.666666666666668,2,7.722222222222223C2,7.7777777777777795,2,7.88888888888889,2.0555555555555554,7.944444444444446C2.0555555555555554,7.944444444444446,2.333333333333333,8.222222222222223,2.333333333333333,8.222222222222223C2.333333333333333,8.222222222222223,2.6666666666666665,8.388888888888891,2.944444444444444,8.555555555555557C3.222222222222222,8.722222222222223,3.5,8.777777777777779,3.833333333333333,8.777777777777779C4.444444444444445,8.777777777777779,4.944444444444444,8.555555555555557,5.333333333333333,8.166666666666668C5.722222222222222,7.7777777777777795,5.944444444444444,7.166666666666668,5.944444444444444,6.222222222222224C5.944444444444444,6.222222222222224,5.944444444444444,-1.3888888888888866,5.944444444444444,-1.3888888888888866C5.944444444444444,-1.3888888888888866,2.5,-1.3888888888888866,2.5,-1.3888888888888866C2.5,-1.3888888888888866,2.5,-2.611111111111109,2.5,-2.611111111111109C2.5,-2.611111111111109,2.5,-2.611111111111109,2.5,-2.611111111111109M5.944444444444444,-6.277777777777775C6.166666666666666,-6.499999999999998,6.388888888888888,-6.555555555555554,6.666666666666666,-6.555555555555554C6.944444444444444,-6.555555555555554,7.166666666666666,-6.499999999999998,7.388888888888888,-6.277777777777775C7.611111111111111,-6.055555555555554,7.722222222222221,-5.777777777777775,7.722222222222221,-5.499999999999998C7.722222222222221,-5.22222222222222,7.611111111111111,-4.999999999999998,7.388888888888888,-4.777777777777775C7.166666666666666,-4.555555555555554,6.944444444444444,-4.499999999999998,6.666666666666666,-4.499999999999998C6.388888888888888,-4.499999999999998,6.166666666666666,-4.555555555555554,5.944444444444444,-4.777777777777775C5.722222222222222,-4.999999999999998,5.611111111111111,-5.22222222222222,5.611111111111111,-5.499999999999998C5.611111111111111,-5.777777777777775,5.722222222222222,-6.055555555555554,5.944444444444444,-6.277777777777775C5.944444444444444,-6.277777777777775,5.944444444444444,-6.277777777777775,5.944444444444444,-6.277777777777775M14.722222226666666,-2.777777777777775C15.222222226666666,-2.777777777777775,15.66666667111111,-2.7222222222222197,16.111111115555556,-2.5555555555555536C16.555555560000002,-2.3888888888888875,17.000000004444445,-2.111111111111109,17.333333337777777,-1.777777777777775C17.66666667111111,-1.4444444444444429,17.944444448888888,-0.9444444444444429,18.16666667111111,-0.3888888888888866C18.38888889333333,0.16666666666666874,18.444444448888888,0.8333333333333348,18.444444448888888,1.5555555555555571C18.444444448888888,1.5555555555555571,18.444444448888888,1.888888888888891,18.444444448888888,1.888888888888891C18.444444448888888,1.888888888888891,18.38888889333333,2.1111111111111125,18.38888889333333,2.222222222222224C18.38888889333333,2.222222222222224,11.888888893333334,2.222222222222224,11.888888893333334,2.222222222222224C11.888888893333334,2.8888888888888906,12.05555556,3.3333333333333353,12.222222226666666,3.7777777777777795C12.388888893333334,4.222222222222224,12.722222226666666,4.555555555555557,13.000000004444445,4.833333333333335C13.277777782222222,5.1111111111111125,13.611111115555556,5.333333333333335,13.944444448888888,5.444444444444446C14.277777782222223,5.555555555555557,14.722222226666666,5.6111111111111125,15.05555556,5.6111111111111125C16.000000004444445,5.6111111111111125,16.777777782222223,5.222222222222224,17.388888893333334,4.555555555555557C17.388888893333334,4.555555555555557,18.222222226666666,5.333333333333335,18.222222226666666,5.333333333333335C17.444444448888888,6.2777777777777795,16.333333337777777,6.7777777777777795,15.000000004444445,6.7777777777777795C14.333333337777777,6.7777777777777795,13.722222226666666,6.666666666666668,13.16666667111111,6.444444444444446C12.611111115555556,6.222222222222224,12.16666667111111,5.944444444444446,11.777777782222223,5.555555555555557C11.388888893333334,5.166666666666668,11.05555556,4.666666666666668,10.833333337777777,4.055555555555557C10.611111115555556,3.4444444444444464,10.55555556,2.7777777777777795,10.55555556,2.0000000000000018C10.55555556,1.222222222222224,10.66666667111111,0.5555555555555571,10.888888893333334,-0.05555555555555358C11.111111115555556,-0.6666666666666643,11.388888893333334,-1.1666666666666643,11.777777782222223,-1.5555555555555536C12.16666667111111,-1.9444444444444429,12.611111115555556,-2.277777777777775,13.111111115555556,-2.4999999999999982C13.611111115555556,-2.7222222222222197,14.111111115555556,-2.777777777777775,14.722222226666666,-2.777777777777775C14.722222226666666,-2.777777777777775,14.722222226666666,-2.777777777777775,14.722222226666666,-2.777777777777775M12.000000004444445,1.0555555555555571C12.000000004444445,1.0555555555555571,17.000000004444445,1.0555555555555571,17.000000004444445,1.0555555555555571C17.000000004444445,1.0555555555555571,17.000000004444445,0.9444444444444464,17.000000004444445,0.9444444444444464C17.000000004444445,0.9444444444444464,17.000000004444445,0.7777777777777795,17.000000004444445,0.7777777777777795C17.000000004444445,0.4444444444444464,16.944444448888888,0.055555555555557135,16.833333337777777,-0.22222222222222054C16.722222226666666,-0.4999999999999982,16.555555560000002,-0.7777777777777759,16.333333337777777,-0.9999999999999982C16.111111115555556,-1.2222222222222205,15.833333337777777,-1.3888888888888866,15.55555556,-1.4999999999999982C15.277777782222223,-1.611111111111109,14.944444448888888,-1.7222222222222197,14.611111115555556,-1.7222222222222197C14.000000004444445,-1.7222222222222197,13.44444444888889,-1.4999999999999982,12.94444444888889,-1.0555555555555536C12.44444444888889,-0.6111111111111089,12.111111115555556,0.11111111111111338,12.000000004444445,1.0555555555555571C12.000000004444445,1.0555555555555571,12.000000004444445,1.0555555555555571,12.000000004444445,1.0555555555555571M21.11111112,-2.611111111111109C21.11111112,-2.611111111111109,22.61111112,-2.611111111111109,22.61111112,-2.611111111111109C22.61111112,-2.611111111111109,22.555555564444443,-0.8333333333333313,22.555555564444443,-0.8333333333333313C22.83333334222222,-1.4999999999999982,23.277777786666668,-1.9444444444444429,23.88888889777778,-2.277777777777775C24.50000000888889,-2.611111111111109,25.166666675555554,-2.777777777777775,25.83333334222222,-2.777777777777775C26.83333334222222,-2.777777777777775,27.61111112,-2.444444444444443,28.277777786666668,-1.777777777777775C28.277777786666668,-1.777777777777775,27.61111112,-0.44444444444444287,27.61111112,-0.44444444444444287C27.444444453333332,-0.6666666666666643,27.33333334222222,-0.8333333333333313,27.22222223111111,-0.9444444444444429C27.11111112,-1.0555555555555536,27.00000000888889,-1.1666666666666643,26.83333334222222,-1.277777777777776C26.666666675555554,-1.3888888888888866,26.50000000888889,-1.4444444444444429,26.33333334222222,-1.4999999999999982C26.166666675555554,-1.5555555555555536,26.00000000888889,-1.5555555555555536,25.777777786666668,-1.5555555555555536C25.33333334222222,-1.5555555555555536,24.88888889777778,-1.4999999999999982,24.50000000888889,-1.277777777777776C24.11111112,-1.0555555555555536,23.777777786666668,-0.7777777777777759,23.50000000888889,-0.44444444444444287C23.22222223111111,-0.11111111111110894,23.00000000888889,0.27777777777777946,22.83333334222222,0.7222222222222241C22.666666675555554,1.1666666666666687,22.555555564444443,1.6111111111111134,22.555555564444443,2.1111111111111125C22.555555564444443,2.1111111111111125,22.555555564444443,6.555555555555557,22.555555564444443,6.555555555555557C22.555555564444443,6.555555555555557,21.11111112,6.555555555555557,21.11111112,6.555555555555557C21.11111112,6.555555555555557,21.11111112,-2.611111111111109,21.11111112,-2.611111111111109C21.11111112,-2.611111111111109,21.11111112,-2.611111111111109,21.11111112,-2.611111111111109M30.000000013333327,6.555555555555557C30.000000013333327,6.555555555555557,30.000000013333327,-2.611111111111109,30.000000013333327,-2.611111111111109C30.000000013333327,-2.611111111111109,31.500000013333327,-2.611111111111109,31.500000013333327,-2.611111111111109C31.500000013333327,-2.611111111111109,31.500000013333327,-0.9444444444444429,31.500000013333327,-0.9444444444444429C31.833333346666663,-1.4999999999999982,32.277777791111106,-1.9444444444444429,32.83333334666666,-2.277777777777775C33.38888890222222,-2.611111111111109,33.94444445777777,-2.777777777777775,34.50000001333333,-2.777777777777775C34.88888890222222,-2.777777777777775,35.277777791111106,-2.777777777777775,35.61111112444444,-2.611111111111109C35.94444445777777,-2.444444444444443,36.22222223555555,-2.277777777777775,36.50000001333333,-1.9444444444444429C36.777777791111106,-1.611111111111109,36.94444445777777,-1.2222222222222205,37.11111112444444,-0.7222222222222205C37.277777791111106,-0.22222222222222054,37.33333334666666,0.3333333333333357,37.33333334666666,1.0000000000000018C37.33333334666666,1.0000000000000018,37.33333334666666,6.555555555555557,37.33333334666666,6.555555555555557C37.33333334666666,6.555555555555557,35.88888890222222,6.555555555555557,35.88888890222222,6.555555555555557C35.88888890222222,6.555555555555557,35.88888890222222,1.0555555555555571,35.88888890222222,1.0555555555555571C35.88888890222222,0.11111111111111338,35.72222223555555,-0.5555555555555536,35.38888890222222,-0.9444444444444429C35.055555568888884,-1.3333333333333313,34.66666667999999,-1.5555555555555536,34.22222223555555,-1.5555555555555536C33.88888890222222,-1.5555555555555536,33.61111112444444,-1.4444444444444429,33.277777791111106,-1.3333333333333313C32.94444445777777,-1.2222222222222205,32.66666667999999,-0.9999999999999982,32.38888890222222,-0.7777777777777759C32.11111112444444,-0.5555555555555536,31.944444457777774,-0.22222222222222054,31.777777791111106,0.11111111111111338C31.611111124444438,0.4444444444444464,31.500000013333327,0.8333333333333348,31.500000013333327,1.2777777777777795C31.500000013333327,1.2777777777777795,31.500000013333327,6.555555555555557,31.500000013333327,6.555555555555557C31.500000013333327,6.555555555555557,30.000000013333327,6.555555555555557,30.000000013333327,6.555555555555557C30.000000013333327,6.555555555555557,30.000000013333327,6.555555555555557,30.000000013333327,6.555555555555557M40.333333351111115,-2.611111111111109C40.333333351111115,-2.611111111111109,44.00000001777778,-2.611111111111109,44.00000001777778,-2.611111111111109C44.00000001777778,-2.611111111111109,44.00000001777778,5.388888888888891,44.00000001777778,5.388888888888891C44.00000001777778,5.388888888888891,46.16666668444444,5.388888888888891,46.16666668444444,5.388888888888891C46.16666668444444,5.388888888888891,46.16666668444444,6.555555555555557,46.16666668444444,6.555555555555557C46.16666668444444,6.555555555555557,40.22222224,6.555555555555557,40.22222224,6.555555555555557C40.22222224,6.555555555555557,40.22222224,5.388888888888891,40.22222224,5.388888888888891C40.22222224,5.388888888888891,42.555555573333336,5.388888888888891,42.555555573333336,5.388888888888891C42.555555573333336,5.388888888888891,42.555555573333336,-1.4444444444444429,42.555555573333336,-1.4444444444444429C42.555555573333336,-1.4444444444444429,40.333333351111115,-1.4444444444444429,40.333333351111115,-1.4444444444444429C40.333333351111115,-1.4444444444444429,40.333333351111115,-2.611111111111109,40.333333351111115,-2.611111111111109C40.333333351111115,-2.611111111111109,40.333333351111115,-2.611111111111109,40.333333351111115,-2.611111111111109M42.555555573333336,-6.277777777777775C42.77777779555556,-6.499999999999998,43.00000001777778,-6.555555555555554,43.27777779555556,-6.555555555555554C43.555555573333336,-6.555555555555554,43.83333335111111,-6.499999999999998,44.055555573333336,-6.277777777777775C44.27777779555556,-6.055555555555554,44.33333335111111,-5.777777777777775,44.33333335111111,-5.499999999999998C44.33333335111111,-5.22222222222222,44.27777779555556,-4.999999999999998,44.055555573333336,-4.777777777777775C43.83333335111111,-4.555555555555554,43.555555573333336,-4.499999999999998,43.27777779555556,-4.499999999999998C43.00000001777778,-4.499999999999998,42.77777779555556,-4.555555555555554,42.555555573333336,-4.777777777777775C42.33333335111111,-4.999999999999998,42.27777779555556,-5.22222222222222,42.27777779555556,-5.499999999999998C42.27777779555556,-5.777777777777775,42.33333335111111,-6.055555555555554,42.555555573333336,-6.277777777777775C42.555555573333336,-6.277777777777775,42.555555573333336,-6.277777777777775,42.555555573333336,-6.277777777777775" />
            </g>
        </g>
    </g>
</svg>